<svg xmlns="http://www.w3.org/2000/svg" width="290" height="252" viewBox="0 0 290 252"><defs><style>.a{opacity:0.1;}.b{fill:#fff;}.c{fill:#f8931e;}</style></defs><g transform="translate(-767 -510)"><g class="a"><path class="b" d="M1035.274,654.84H980.09v-.067a14.681,14.681,0,0,1,1.39-29.273h.08a28.972,28.972,0,0,1,54.923-13.242,21.308,21.308,0,0,1,.167,42.58v0h-.084q-.322.01-.646.01T1035.274,654.84Z"/><path class="b" d="M782.41,579v-.082a17.259,17.259,0,0,1,1.68-34.417,34.144,34.144,0,0,1,64.727-15.533,25.028,25.028,0,0,1,.253,50.017V579Z"/></g><path class="c" d="M898.5,690a113.882,113.882,0,0,1-21.166-1.916,78.445,78.445,0,0,1-17.088-5.134L860,683l.039-.142,1.58-6.33.071.032.072.032,16.21-58.967a35.951,35.951,0,0,1-10.333,5.478,36.67,36.67,0,0,1-23.463-.064A36.037,36.037,0,0,1,834,617.6v-9.772a28.984,28.984,0,0,0,48.974-8.406l1.424-5.18c.128-.749.226-1.5.292-2.244h.325l.231-.842,3.086.842h3.579c-.025.346-.052.658-.08.954L892,593l-.3,1.1a34.924,34.924,0,0,1-2.491,9.138l-20.677,75.845A107.885,107.885,0,0,0,898.5,683c11.452,0,22.5-1.516,31.1-4.269L906,592.838l.225-.061c-.185-.649-.348-1.247-.485-1.777H913c6.88,23.992,25.272,42.949,48,49.473v7.254a74.859,74.859,0,0,1-34.92-20.45c-1.644-1.69-3.229-3.472-4.71-5.3L938,682l-.133-.017.174.379a75.63,75.63,0,0,1-17.656,5.584A113.365,113.365,0,0,1,898.5,690ZM903,583a23,23,0,0,1-16.764-38.746l6.107,3.677A16.1,16.1,0,1,0,917.9,566.124a65.937,65.937,0,0,1-22.406-23.347c-1.06-1.867-2.044-3.822-2.924-5.811l4.979-5.089a38.5,38.5,0,0,0,56.11,1.912l2.943,6.831A45.331,45.331,0,0,1,926.5,552c-1.448,0-2.909-.069-4.344-.2a48.5,48.5,0,0,0,38.539-1.675l2.779,6.45c-.784.375-1.581.734-2.37,1.068a55.678,55.678,0,0,1-43.217-.005,58.472,58.472,0,0,0,50.052,9.3l2.8,6.5a65.541,65.541,0,0,1-46.773-3.957A23,23,0,0,1,903,583Z"/><path class="c" d="M981,762v-7h31v7Zm-170,0v-7h94.235a107.908,107.908,0,0,1-10.687-15.91,131.276,131.276,0,0,1-9.428-21.523,152.71,152.71,0,0,1-6.01-24.431c-.326-2.02-.618-4.084-.869-6.135h7.047c3.518,27.688,13.8,51.7,29.047,68H969v7Zm127.933-33.269a72.25,72.25,0,0,1-18.8-9.2A81.625,81.625,0,0,1,892.669,687h7.823c12.362,23.44,35.163,38,59.508,38a62.909,62.909,0,0,0,9-.649v7.065a69.586,69.586,0,0,1-30.067-2.686Z"/><path class="c" d="M829.8,615.817q-1.889.183-3.8.183a39.049,39.049,0,1,1,30.464-14.647,39.315,39.315,0,0,1-6.019,6.036l-6.268-4.074a31.847,31.847,0,1,0-10.669,4.778l.409.992.154-.082,13.919,27.745L841.928,640Z"/><path class="b" d="M808.96,577H802a23.991,23.991,0,0,1,39.415-18.4l-4.667,5.172A17.041,17.041,0,0,0,808.96,577Z"/></g></svg>