<svg xmlns="http://www.w3.org/2000/svg" width="256.596" height="59.461" viewBox="0 0 256.596 59.461"><defs><style>.a{fill:#f77e0b;}.b{fill:#313133;}.c{fill:#e50019;}</style></defs><g transform="translate(-276.16 -58.472)"><rect class="a" width="75.172" height="3.098" transform="translate(457.584 105.411)"/><path class="b" d="M373.891,88.066h-5.858v2.24h5.386v3.6h-5.386v2.784H374.1v3.6H364V84.446h9.887Z"/><path class="b" d="M386.043,84.7l2.693,8.415h.067l.7-2.692,2.016-5.973h4.028v.611l-5.5,15.384h-2.33l-2.532-7.622h-.07l-2.533,7.622h-2.239l-5.565-15.384v-.611h4.093l2.038,5.973.7,2.692h.067l2.648-8.415Z"/><path class="b" d="M415.254,99.695v.589H410.73l-2.716-4.661h-2.1v4.661h-4.049V84.446h6.946c6.221.025,7.352,7.511,3.349,10.227Zm-6.446-11.629c-.951-.023-1.947,0-2.9,0v3.959h2.9C411,92.025,411.116,88.09,408.808,88.066Z"/><path class="b" d="M426.459,88.066H420.6v2.24h5.385v3.6H420.6v2.784h6.063v3.6H416.572V84.446h9.887Z"/><path class="b" d="M438.154,98.292H431.91l-.924,1.992h-3.963v-.589l7.127-15.452h1.743l7.148,15.452v.589h-3.957Zm-3.142-7.625-1.787,4.163h3.619Z"/><path class="b" d="M448.045,96.64h5.748v3.644h-9.82V84.446h4.072Z"/><path class="b" d="M470.424,88.066h-5.86v2.24h5.385v3.6h-5.385v2.784h6.063v3.6h-10.09V84.446h9.887Z"/><path class="b" d="M480.742,95.623c0-1.108-1.31-1.357-2.9-1.448-3.438-.25-5.7-1.426-5.744-4.865-.139-6.832,12.171-6.832,12.082,0h-3.848c0-2.1-4.254-1.922-4.389-.044-.094,1.2,1.086,1.448,2.51,1.605,3.145.339,6.221.815,6.221,4.774,0,6.652-12.9,6.765-12.805-.2h3.914C475.787,97.455,480.742,97.477,480.742,95.623Z"/><path class="b" d="M484.953,88.066v-3.62h11.764v3.62H492.85v12.218h-4V88.066Z"/><path class="b" d="M506.174,98.292H499.93l-.924,1.992h-3.963v-.589l7.127-15.452h1.742l7.148,15.452v.589H507.1Zm-3.143-7.625-1.787,4.163h3.619Z"/><path class="b" d="M509.391,88.066v-3.62h11.765v3.62h-3.867v12.218h-4.008V88.066Z"/><path class="b" d="M532.422,88.066h-5.858v2.24h5.385v3.6h-5.385v2.784h6.063v3.6H522.539V84.446h9.883Z"/><rect class="b" width="33.327" height="3.098" transform="translate(363.879 105.411)"/><rect class="c" width="60.378" height="3.098" transform="translate(397.206 105.411)"/><path class="b" d="M348.173,58.952a.766.766,0,0,0-1.433.03L323.608,99.7a.737.737,0,0,1-1.4.008l-1.506-2.576a2.791,2.791,0,0,1-.047-2.442l12.785-23.96a2.681,2.681,0,0,0-.084-2.42L327.5,58.952a.757.757,0,0,0-1.421.037l-23.153,41.684a.73.73,0,0,1-1.386.015l-1.342-2.3a2.751,2.751,0,0,1-.035-2.437l13.755-25.229a2.648,2.648,0,0,0-.07-2.416l-5.858-9.359a.766.766,0,0,0-1.433.03l-13.8,24.267a.738.738,0,0,1-1.4.008l-1.422-2.432a2.833,2.833,0,0,1-.061-2.45l3.659-7.058a2.758,2.758,0,0,0-.086-2.435l-6.066-9.923a.757.757,0,0,0-1.421.023L276.9,74.958a6.433,6.433,0,0,0-.7,2.615l-.038,3.821A5.961,5.961,0,0,0,276.85,84l19.115,32.718a2.7,2.7,0,0,0,2.105,1.208l8.338,0a2.628,2.628,0,0,0,2.076-1.225l3.567-6.434a.728.728,0,0,1,1.384-.016l3.2,5.483a2.7,2.7,0,0,0,2.1,1.208l8.337,0a2.63,2.63,0,0,0,2.077-1.224L354.1,70.722a2.628,2.628,0,0,0-.064-2.411Z"/></g></svg>