<svg xmlns="http://www.w3.org/2000/svg" width="32.222" height="25.958" viewBox="0 0 32.222 25.958"><defs><style>.a{fill:#323233;}</style></defs><path class="a" d="M799.222,3736.2a13.311,13.311,0,0,1-3.8,1.032,6.585,6.585,0,0,0,2.907-3.626,13.314,13.314,0,0,1-4.2,1.59,6.626,6.626,0,0,0-11.436,4.483,6.535,6.535,0,0,0,.171,1.494,18.826,18.826,0,0,1-13.626-6.847,6.522,6.522,0,0,0,2.046,8.748,6.618,6.618,0,0,1-2.994-.819c0,.028,0,.055,0,.083a6.572,6.572,0,0,0,5.3,6.426,6.662,6.662,0,0,1-2.986.112,6.61,6.61,0,0,0,6.175,4.551,13.335,13.335,0,0,1-8.21,2.806,13.505,13.505,0,0,1-1.577-.092,18.827,18.827,0,0,0,10.134,2.945,18.594,18.594,0,0,0,18.809-18.645q0-.427-.019-.848A13.375,13.375,0,0,0,799.222,3736.2Z" transform="translate(-767 -3733.124)"/></svg>